<svg width="680" height="120" viewBox="0 0 680 120" fill="none" xmlns="http://www.w3.org/2000/svg">
<path d="M32.2354 118.519H0L36.3757 8.14815H77.1875L113.563 118.519H81.3279L57.2252 38.5185H56.338L32.2354 118.519ZM26.3207 74.963H56.9389L63.6787 97.3333H26.3207V74.963Z" fill="white"/>
<path d="M163.433 82.3704V35.7037H193.155V118.519H164.912V102.815H164.025C162.25 108.049 159.12 112.173 154.635 115.185C150.199 118.148 144.9 119.605 138.739 119.556C132.972 119.556 127.92 118.247 123.582 115.63C119.245 112.963 115.869 109.309 113.453 104.667C111.088 99.9753 109.905 94.6173 109.905 88.5926V35.7037H139.626V82.3704C139.626 86.4197 140.661 89.6296 142.731 92C144.802 94.321 147.71 95.4568 151.456 95.4074C153.92 95.4074 156.04 94.8889 157.814 93.8518C159.588 92.8148 160.969 91.3333 161.954 89.4074C162.94 87.4321 163.433 85.0864 163.433 82.3704Z" fill="white"/>
<path d="M252.797 35.7037V57.3333H198.382V35.7037H252.797ZM208.88 16H238.602V91.8519C238.602 93.5802 239.046 94.8889 239.933 95.7778C240.82 96.6173 242.249 97.037 244.221 97.037C245.108 97.037 246.143 96.9383 247.326 96.7407C248.558 96.5432 249.446 96.3457 249.988 96.1481L254.276 117.185C250.875 118.123 247.794 118.79 245.034 119.185C242.274 119.58 239.563 119.778 236.901 119.778C227.635 119.778 220.636 117.654 215.904 113.407C211.222 109.16 208.88 102.914 208.88 94.6667V16Z" fill="white"/>
<path d="M286.813 72V118.519H257.091V8.14815H285.63V51.5556H286.517C288.39 46.2716 291.496 42.1481 295.833 39.1852C300.171 36.1728 305.395 34.6667 311.507 34.6667C317.323 34.6667 322.376 36 326.664 38.6667C331.001 41.3333 334.353 45.0123 336.719 49.7037C339.134 54.3457 340.342 59.7037 340.342 65.7778V118.519H310.62V72C310.62 67.9012 309.585 64.6914 307.515 62.3704C305.494 60 302.586 58.8148 298.791 58.8148C296.375 58.8148 294.256 59.358 292.432 60.4444C290.658 61.4815 289.278 62.9877 288.292 64.963C287.306 66.8889 286.813 69.2346 286.813 72Z" fill="white"/>
<path d="M385.448 120C376.625 120 369.009 118.321 362.602 114.963C356.243 111.556 351.364 106.667 347.963 100.296C344.562 93.9259 342.861 86.2716 342.861 77.3333C342.861 68.7901 344.562 61.3333 347.963 54.963C351.413 48.5432 356.268 43.5556 362.528 40C368.788 36.4444 376.181 34.6667 384.708 34.6667C390.968 34.6667 396.612 35.6543 401.639 37.6296C406.716 39.5556 411.053 42.3704 414.652 46.0741C418.25 49.7284 421.01 54.1728 422.932 59.4074C424.855 64.642 425.816 70.5679 425.816 77.1852V84H352.029V67.7037H411.916L398.016 71.1111C398.016 67.7531 397.524 64.9383 396.538 62.6667C395.552 60.3457 394.098 58.5926 392.176 57.4074C390.253 56.1728 387.863 55.5556 385.004 55.5556C382.145 55.5556 379.755 56.1728 377.832 57.4074C375.91 58.5926 374.456 60.3457 373.47 62.6667C372.484 64.9383 371.991 67.7531 371.991 71.1111V82.963C371.991 86.2222 372.558 89.0617 373.692 91.4815C374.875 93.9012 376.526 95.7778 378.646 97.1111C380.765 98.4445 383.229 99.1111 386.039 99.1111C388.06 99.1111 389.884 98.8395 391.51 98.2963C393.186 97.7037 394.615 96.8642 395.798 95.7778C396.981 94.6914 397.869 93.3827 398.46 91.8519H425.52C424.584 97.5802 422.39 102.568 418.94 106.815C415.539 111.012 411.004 114.272 405.336 116.593C399.717 118.864 393.087 120 385.448 120Z" fill="white"/>
<path d="M457.761 72V118.519H428.04V35.7037H457.466V51.5556H458.057C459.881 46.2716 462.863 42.1481 467.003 39.1852C471.193 36.1728 476.344 34.6667 482.455 34.6667C488.321 34.6667 493.398 36 497.686 38.6667C502.023 41.3333 505.375 45.0123 507.741 49.7037C510.107 54.3951 511.29 59.7531 511.29 65.7778V118.519H481.568V72C481.568 67.9012 480.533 64.6914 478.463 62.3704C476.393 60 473.485 58.8148 469.739 58.8148C467.323 58.8148 465.204 59.358 463.38 60.4444C461.606 61.4815 460.226 62.9877 459.24 64.963C458.254 66.8889 457.761 69.2346 457.761 72Z" fill="white"/>
<path d="M566.007 35.7037V57.3333H511.591V35.7037H566.007ZM522.09 16H551.812V91.8519C551.812 93.5802 552.256 94.8889 553.143 95.7778C554.03 96.6173 555.459 97.037 557.431 97.037C558.318 97.037 559.353 96.9383 560.536 96.7407C561.769 96.5432 562.656 96.3457 563.198 96.1481L567.486 117.185C564.085 118.123 561.005 118.79 558.244 119.185C555.484 119.58 552.773 119.778 550.112 119.778C540.845 119.778 533.846 117.654 529.114 113.407C524.432 109.16 522.09 102.914 522.09 94.6667V16Z" fill="white"/>
<path d="M569.536 118.519V35.7037H599.258V118.519H569.536ZM584.323 27.2593C580.281 27.2593 576.831 25.9259 573.972 23.2593C571.113 20.5926 569.684 17.3827 569.684 13.6296C569.684 9.82716 571.113 6.61728 573.972 4C576.831 1.33333 580.281 0 584.323 0C588.365 0 591.815 1.33333 594.674 4C597.533 6.61728 598.962 9.80247 598.962 13.5556C598.962 17.358 597.533 20.5926 594.674 23.2593C591.815 25.9259 588.365 27.2593 584.323 27.2593Z" fill="white"/>
<path d="M627.802 119.852C622.528 119.852 617.846 118.988 613.755 117.259C609.713 115.481 606.559 112.815 604.291 109.259C602.024 105.704 600.89 101.185 600.89 95.7037C600.89 91.1605 601.654 87.2839 603.182 84.0741C604.71 80.8642 606.854 78.2469 609.614 76.2222C612.375 74.1482 615.579 72.5679 619.226 71.4815C622.923 70.3457 626.915 69.6296 631.203 69.3333C635.837 68.9877 639.533 68.5679 642.293 68.0741C645.103 67.5803 647.124 66.8642 648.356 65.9259C649.638 64.9383 650.278 63.6543 650.278 62.0741V61.7778C650.278 59.6543 649.465 58.0247 647.839 56.8889C646.212 55.7037 644.117 55.1111 641.554 55.1111C638.695 55.1111 636.379 55.7284 634.604 56.963C632.83 58.1975 631.746 60.0988 631.351 62.6667H604.143C604.488 57.6296 606.066 52.9877 608.875 48.7407C611.734 44.4938 615.899 41.0864 621.37 38.5185C626.891 35.9506 633.766 34.6667 641.998 34.6667C647.863 34.6667 653.137 35.358 657.82 36.7407C662.502 38.1235 666.495 40.0494 669.797 42.5185C673.099 44.9877 675.613 47.8765 677.338 51.1852C679.113 54.4444 680 57.9753 680 61.7778V118.519H652.201V106.815H651.609C649.933 109.926 647.913 112.444 645.547 114.37C643.23 116.247 640.593 117.63 637.636 118.519C634.678 119.407 631.401 119.852 627.802 119.852ZM637.414 101.037C639.681 101.037 641.801 100.568 643.772 99.6296C645.793 98.6914 647.42 97.358 648.652 95.6296C649.933 93.8518 650.574 91.7037 650.574 89.1852V82.3704C649.786 82.6667 648.948 82.963 648.06 83.2593C647.173 83.5556 646.212 83.8272 645.177 84.0741C644.191 84.321 643.156 84.5432 642.072 84.7407C641.037 84.9383 639.928 85.1358 638.745 85.3333C636.428 85.679 634.53 86.2716 633.052 87.1111C631.622 87.9012 630.563 88.8889 629.873 90.0741C629.182 91.2099 628.837 92.4938 628.837 93.9259C628.837 96.2469 629.626 98.0247 631.203 99.2593C632.83 100.444 634.9 101.037 637.414 101.037Z" fill="white"/>
</svg>
