<svg width="32" height="47" viewBox="0 0 32 47" fill="none" xmlns="http://www.w3.org/2000/svg">
<path d="M15.0299 45.7306L0.386045 25.6583C-0.371399 24.5853 0.00732302 23.5122 1.33285 23.5122H6.76119C7.18238 23.6261 7.54385 23.8972 7.77112 24.2697L15.6612 35.6313L15.9768 35.8838V46.2355C15.7864 46.257 15.594 46.2203 15.4249 46.1301C15.2559 46.04 15.1181 45.9006 15.0299 45.7306ZM17.0498 45.7306L31.6306 25.7214C32.388 24.6484 31.9462 23.5753 30.6207 23.5753H25.1923C24.7711 23.6892 24.4097 23.9603 24.1824 24.3328L16.3555 35.6944L16.0399 35.9469V46.2355C16.2401 46.271 16.4465 46.241 16.6284 46.1501C16.8102 46.0591 16.958 45.912 17.0498 45.7306Z" fill="white" fill-opacity="0.85"/>
<path d="M15.0299 22.2183L0.386045 2.14609C-0.371399 1.07304 0.00732302 0 1.33285 0H6.76119C7.18238 0.113894 7.54385 0.384992 7.77112 0.757443L15.6612 12.1191L15.9768 12.3716V22.7233C15.7864 22.7448 15.594 22.7081 15.4249 22.6179C15.2559 22.5277 15.1181 22.3884 15.0299 22.2183ZM17.0498 22.2183L31.6306 2.20921C32.388 1.13617 31.9462 0.0631205 30.6207 0.0631205H25.1923C24.7711 0.177014 24.4097 0.448112 24.1824 0.820564L16.3555 12.1822L16.0399 12.4347V22.7233C16.2401 22.7588 16.4465 22.7288 16.6284 22.6378C16.8102 22.5469 16.958 22.3998 17.0498 22.2183Z" fill="white" fill-opacity="0.5"/>
</svg>
