<svg width="680" height="68" viewBox="0 0 680 68" fill="none" xmlns="http://www.w3.org/2000/svg">
<path d="M249.711 51.4688C246.664 51.4688 243.992 50.7344 241.695 49.2656C239.414 47.7969 237.641 45.7188 236.375 43.0312C235.109 40.3438 234.477 37.1875 234.477 33.5625C234.477 29.9062 235.109 26.7344 236.375 24.0469C237.656 21.3594 239.422 19.2812 241.672 17.8125C243.922 16.3438 246.523 15.6094 249.477 15.6094C251.383 15.6094 253.125 15.9141 254.703 16.5234C256.297 17.1172 257.695 17.9453 258.898 19.0078C260.102 20.0547 261.094 21.2656 261.875 22.6406C262.656 24 263.188 25.4531 263.469 27H260.188C259.875 25.8281 259.406 24.7422 258.781 23.7422C258.172 22.7266 257.414 21.8359 256.508 21.0703C255.602 20.2891 254.562 19.6797 253.391 19.2422C252.219 18.8047 250.914 18.5859 249.477 18.5859C247.211 18.5859 245.18 19.1797 243.383 20.3672C241.586 21.5547 240.164 23.2656 239.117 25.5C238.07 27.7344 237.547 30.4219 237.547 33.5625C237.547 36.6719 238.07 39.3438 239.117 41.5781C240.164 43.8125 241.602 45.5234 243.43 46.7109C245.258 47.8984 247.352 48.4922 249.711 48.4922C251.852 48.4922 253.734 48.0156 255.359 47.0625C257 46.1094 258.281 44.75 259.203 42.9844C260.125 41.2188 260.586 39.1016 260.586 36.6328L261.617 36.9609H250.461V34.1016H263.703V36.9609C263.703 39.9453 263.102 42.5234 261.898 44.6953C260.711 46.8516 259.062 48.5234 256.953 49.7109C254.844 50.8828 252.43 51.4688 249.711 51.4688ZM279.711 51.5625C277.445 51.5625 275.445 50.9922 273.711 49.8516C271.977 48.6953 270.617 47.1016 269.633 45.0703C268.664 43.0234 268.18 40.6797 268.18 38.0391C268.18 35.3516 268.664 32.9922 269.633 30.9609C270.617 28.9141 271.977 27.3203 273.711 26.1797C275.445 25.0234 277.445 24.4453 279.711 24.4453C281.977 24.4453 283.969 25.0234 285.688 26.1797C287.422 27.3203 288.781 28.9141 289.766 30.9609C290.75 32.9922 291.242 35.3516 291.242 38.0391C291.242 40.6797 290.75 43.0234 289.766 45.0703C288.797 47.1016 287.445 48.6953 285.711 49.8516C283.977 50.9922 281.977 51.5625 279.711 51.5625ZM279.711 48.7969C281.539 48.7969 283.078 48.3125 284.328 47.3438C285.594 46.3594 286.555 45.0469 287.211 43.4062C287.867 41.7656 288.195 39.9766 288.195 38.0391C288.195 36.0703 287.867 34.2656 287.211 32.625C286.555 30.9844 285.594 29.6719 284.328 28.6875C283.062 27.7031 281.523 27.2109 279.711 27.2109C277.898 27.2109 276.359 27.7109 275.094 28.7109C273.844 29.6953 272.883 31.0078 272.211 32.6484C271.555 34.2734 271.227 36.0703 271.227 38.0391C271.227 39.9766 271.555 41.7656 272.211 43.4062C272.867 45.0469 273.828 46.3594 275.094 47.3438C276.359 48.3125 277.898 48.7969 279.711 48.7969ZM319.156 24.7969V27.4453H306.289V24.7969H319.156ZM310.32 51V20.9766C310.32 19.5547 310.648 18.3672 311.305 17.4141C311.961 16.4453 312.812 15.7109 313.859 15.2109C314.922 14.7109 316.039 14.4609 317.211 14.4609C318.023 14.4609 318.695 14.5312 319.227 14.6719C319.758 14.7969 320.172 14.9297 320.469 15.0703L319.578 17.7188C319.344 17.625 319.062 17.5391 318.734 17.4609C318.422 17.3672 318.008 17.3203 317.492 17.3203C316.18 17.3203 315.156 17.6953 314.422 18.4453C313.688 19.1953 313.32 20.2578 313.32 21.6328V51H310.32ZM330.336 51.5859C328.758 51.5859 327.312 51.2812 326 50.6719C324.688 50.0469 323.641 49.1484 322.859 47.9766C322.094 46.7891 321.711 45.3516 321.711 43.6641C321.711 42.3672 321.953 41.2812 322.438 40.4062C322.922 39.5312 323.617 38.8125 324.523 38.25C325.43 37.6719 326.492 37.2188 327.711 36.8906C328.945 36.5469 330.305 36.2891 331.789 36.1172C333.258 35.9297 334.5 35.7734 335.516 35.6484C336.531 35.5078 337.305 35.2891 337.836 34.9922C338.367 34.6953 338.633 34.2188 338.633 33.5625V32.9531C338.633 31.1562 338.102 29.75 337.039 28.7344C335.977 27.7031 334.453 27.1875 332.469 27.1875C330.578 27.1875 329.039 27.6016 327.852 28.4297C326.664 29.2578 325.836 30.2344 325.367 31.3594L322.461 30.3047C323.055 28.8828 323.875 27.7422 324.922 26.8828C325.969 26.0234 327.141 25.4062 328.438 25.0312C329.734 24.6406 331.047 24.4453 332.375 24.4453C333.375 24.4453 334.414 24.5781 335.492 24.8438C336.57 25.1094 337.578 25.5625 338.516 26.2031C339.453 26.8438 340.211 27.7422 340.789 28.8984C341.383 30.0391 341.68 31.4844 341.68 33.2344V51H338.633V46.8516H338.445C338.102 47.6172 337.57 48.3672 336.852 49.1016C336.133 49.8203 335.234 50.4141 334.156 50.8828C333.078 51.3516 331.805 51.5859 330.336 51.5859ZM330.758 48.8203C332.367 48.8203 333.758 48.4688 334.93 47.7656C336.117 47.0469 337.031 46.0859 337.672 44.8828C338.312 43.6797 338.633 42.3672 338.633 40.9453V37.1719C338.398 37.3906 338.016 37.5859 337.484 37.7578C336.969 37.9297 336.367 38.0781 335.68 38.2031C335.008 38.3281 334.32 38.4375 333.617 38.5312C332.93 38.625 332.32 38.7031 331.789 38.7656C330.32 38.9531 329.055 39.2422 327.992 39.6328C326.945 40.0234 326.141 40.5547 325.578 41.2266C325.031 41.8984 324.758 42.7656 324.758 43.8281C324.758 45.4062 325.32 46.6328 326.445 47.5078C327.586 48.3828 329.023 48.8203 330.758 48.8203ZM348.195 51V24.7969H351.125V28.8516H351.359C351.891 27.5234 352.805 26.4609 354.102 25.6641C355.414 24.8516 356.891 24.4453 358.531 24.4453C358.781 24.4453 359.055 24.4453 359.352 24.4453C359.664 24.4453 359.922 24.4531 360.125 24.4688V27.5391C360 27.5234 359.766 27.5 359.422 27.4688C359.078 27.4219 358.695 27.3984 358.273 27.3984C356.93 27.3984 355.719 27.6875 354.641 28.2656C353.578 28.8438 352.742 29.6406 352.133 30.6562C351.523 31.6562 351.219 32.8047 351.219 34.1016V51H348.195ZM375.734 24.7969V27.4453H363.242V24.7969H375.734ZM367.156 18.5625H370.18V44.1562C370.18 45.5781 370.531 46.6484 371.234 47.3672C371.938 48.0703 372.914 48.4219 374.164 48.4219C374.445 48.4219 374.727 48.4062 375.008 48.375C375.305 48.3281 375.617 48.2656 375.945 48.1875L376.602 50.9297C376.242 51.0703 375.828 51.1797 375.359 51.2578C374.891 51.3359 374.406 51.375 373.906 51.375C371.969 51.375 370.359 50.7812 369.078 49.5938C367.797 48.3906 367.156 46.8203 367.156 44.8828V18.5625ZM384.734 34.6406V51H381.711V16.0781H384.734V28.9453H385.039C385.648 27.5859 386.594 26.5 387.875 25.6875C389.156 24.875 390.789 24.4688 392.773 24.4688C394.539 24.4688 396.094 24.8359 397.438 25.5703C398.781 26.2891 399.828 27.3594 400.578 28.7812C401.344 30.2031 401.727 31.9609 401.727 34.0547V51H398.68V34.2422C398.68 32.0703 398.07 30.3594 396.852 29.1094C395.648 27.8594 394.023 27.2344 391.977 27.2344C390.586 27.2344 389.344 27.5391 388.25 28.1484C387.172 28.7422 386.312 29.5938 385.672 30.7031C385.047 31.7969 384.734 33.1094 384.734 34.6406ZM418.836 51.5625C416.398 51.5625 414.281 50.9922 412.484 49.8516C410.688 48.6953 409.305 47.1016 408.336 45.0703C407.367 43.0391 406.883 40.7031 406.883 38.0625C406.883 35.4219 407.359 33.0781 408.312 31.0312C409.281 28.9844 410.625 27.375 412.344 26.2031C414.062 25.0312 416.055 24.4453 418.32 24.4453C419.727 24.4453 421.094 24.7109 422.422 25.2422C423.75 25.7578 424.945 26.5469 426.008 27.6094C427.07 28.6719 427.906 30.0234 428.516 31.6641C429.125 33.2891 429.43 35.2266 429.43 37.4766V38.8359H408.969V36.1641H427.789L426.406 37.1953C426.406 35.2891 426.078 33.5859 425.422 32.0859C424.781 30.5859 423.859 29.3984 422.656 28.5234C421.453 27.6484 420.008 27.2109 418.32 27.2109C416.648 27.2109 415.18 27.6562 413.914 28.5469C412.648 29.4219 411.664 30.5938 410.961 32.0625C410.273 33.5156 409.93 35.1094 409.93 36.8438V38.4141C409.93 40.5078 410.289 42.3359 411.008 43.8984C411.742 45.4453 412.773 46.6484 414.102 47.5078C415.445 48.3672 417.023 48.7969 418.836 48.7969C420.07 48.7969 421.156 48.6016 422.094 48.2109C423.031 47.8203 423.82 47.2969 424.461 46.6406C425.102 45.9688 425.586 45.2422 425.914 44.4609L428.797 45.4219C428.391 46.5156 427.734 47.5312 426.828 48.4688C425.938 49.3906 424.812 50.1406 423.453 50.7188C422.109 51.2812 420.57 51.5625 418.836 51.5625ZM434.492 51V24.7969H437.422V28.8516H437.656C438.188 27.5234 439.102 26.4609 440.398 25.6641C441.711 24.8516 443.188 24.4453 444.828 24.4453C445.078 24.4453 445.352 24.4453 445.648 24.4453C445.961 24.4453 446.219 24.4531 446.422 24.4688V27.5391C446.297 27.5234 446.062 27.5 445.719 27.4688C445.375 27.4219 444.992 27.3984 444.57 27.3984C443.227 27.3984 442.016 27.6875 440.938 28.2656C439.875 28.8438 439.039 29.6406 438.43 30.6562C437.82 31.6562 437.516 32.8047 437.516 34.1016V51H434.492Z" fill="white"/>
</svg>
